<?xml version="1.0" encoding="UTF-8" standalone="no"?>
<!-- Created with Inkscape (http://www.inkscape.org/) -->

<svg
   xmlns:dc="http://purl.org/dc/elements/1.1/"
   xmlns:cc="http://creativecommons.org/ns#"
   xmlns:rdf="http://www.w3.org/1999/02/22-rdf-syntax-ns#"
   xmlns:svg="http://www.w3.org/2000/svg"
   xmlns="http://www.w3.org/2000/svg"
   xmlns:sodipodi="http://sodipodi.sourceforge.net/DTD/sodipodi-0.dtd"
   xmlns:inkscape="http://www.inkscape.org/namespaces/inkscape"
   version="1.0"
   width="1088"
   height="216"
   id="svg2439"
   inkscape:version="0.91 r13725"
   sodipodi:docname="388 Fedora Taiwan logo.svg"
   inkscape:export-filename="/home/duffy/Desktop/_delete_/fedora-singapore_200px.png"
   inkscape:export-xdpi="17.570784"
   inkscape:export-ydpi="17.570784">
  <metadata
     id="metadata23">
    <rdf:RDF>
      <cc:Work
         rdf:about="">
        <dc:format>image/svg+xml</dc:format>
        <dc:type
           rdf:resource="http://purl.org/dc/dcmitype/StillImage" />
        <dc:title></dc:title>
      </cc:Work>
    </rdf:RDF>
  </metadata>
  <sodipodi:namedview
     pagecolor="#ffffff"
     bordercolor="#666666"
     borderopacity="1"
     objecttolerance="10"
     gridtolerance="10"
     guidetolerance="10"
     inkscape:pageopacity="0"
     inkscape:pageshadow="2"
     inkscape:window-width="1366"
     inkscape:window-height="704"
     id="namedview21"
     showgrid="false"
     inkscape:zoom="0.5"
     inkscape:cx="583.35365"
     inkscape:cy="150.00068"
     inkscape:window-x="0"
     inkscape:window-y="27"
     inkscape:window-maximized="1"
     inkscape:current-layer="svg2439"
     fit-margin-top="0"
     fit-margin-left="0"
     fit-margin-right="0"
     fit-margin-bottom="0"
     showguides="true"
     inkscape:guide-bbox="true" />
  <defs
     id="defs2441" />
  <g
     id="g116985"
     transform="translate(33.50866,-248.5784)" />
  <g
     id="g4196"
     transform="matrix(1.7782048,0,0,1.7782048,-212.12524,-210.9084)">
    <g
       transform="matrix(0.96829312,0,0,0.96829312,47.933959,-94.966196)"
       id="g5187">
      <path
         inkscape:connector-curvature="0"
         style="fill:#294172;fill-opacity:1"
         id="path5098"
         d="m 197.09388,284.282 c 0,-33.30375 -26.99748,-60.3022 -60.30123,-60.3022 -33.2883,0 -60.275157,26.97624 -60.299307,60.2597 l -0.002,-0.002 0,46.66389 0.002,0.002 c 0.01832,7.55708 6.146896,13.67501 13.708824,13.67501 0.02124,0 0.04248,-0.002 0.06473,-0.002 l 0.004,0.002 46.545093,0 0,0 c 33.29409,-0.0135 60.27805,-27.00232 60.27805,-60.29641 z" />
      <path
         inkscape:connector-curvature="0"
         style="fill:#3c6eb4;fill-opacity:1"
         id="path5100"
         d="m 154.49733,238.27395 c -15.63093,0 -28.30142,12.6705 -28.30142,28.30142 0,0.006 0,0.0126 0,0.0203 l 0,14.97994 -14.9326,0 c -0.003,0 -0.003,0 -0.005,0 -15.631899,0 -28.301431,12.60867 -28.301431,28.23767 0,15.63093 12.669532,28.3024 28.301431,28.3024 15.62997,0 28.30143,-12.67243 28.30143,-28.3024 0,-0.005 0,-0.0126 0,-0.0183 l 0,-15.04368 14.93163,0 c 0.003,0 0.005,0 0.006,0 15.62997,0 28.30144,-12.54493 28.30144,-28.17587 0,-15.63092 -12.67147,-28.30142 -28.30144,-28.30142 z m -28.30045,71.56443 c -0.0135,8.23805 -6.69746,14.91425 -14.93744,14.91425 -8.24963,0 -14.999244,-6.68876 -14.999244,-14.9384 0,-8.25059 6.749614,-15.06396 14.999244,-15.06396 0.008,0 0.0145,0.002 0.0202,0.002 l 12.79896,0 c 0.004,0 0.007,-0.002 0.0101,-0.002 1.16486,0 2.11046,0.94272 2.11046,2.10757 0,9.6e-4 -9.6e-4,0.003 -9.6e-4,0.005 l 0,12.97571 -9.7e-4,0 z m 28.29949,-28.26375 c -0.005,0 -0.0101,0 -0.0145,0 l -12.80764,0 c -0.002,0 -0.006,0 -0.006,0 -1.1668,0 -2.1095,-0.94464 -2.1095,-2.1095 l 0,-0.002 0,-12.91293 c 0.0145,-8.24094 6.69649,-14.91425 14.93646,-14.91425 8.2506,0 15.00118,6.68779 15.00118,14.93935 0.002,8.24964 -6.74961,14.99926 -15.00021,14.99926 z" />
      <path
         inkscape:connector-curvature="0"
         style="fill:#ffffff"
         id="path5102"
         d="m 126.19688,281.57463 0,-14.97993 c 0,-0.008 0,-0.0145 0,-0.0203 0,-15.63094 12.67048,-28.30144 28.30142,-28.30144 2.37222,0 4.05672,0.26563 6.25315,0.84129 3.19998,0.83839 5.81463,3.46077 5.8156,6.51394 9.6e-4,3.68968 -2.67743,6.37195 -6.68007,6.37195 -1.90763,0 -2.5963,-0.36511 -5.38965,-0.36511 -8.23997,0 -14.92197,6.67331 -14.93646,14.91425 l 0,12.91293 0,0.002 c 0,1.16487 0.94271,2.1095 2.1095,2.1095 0,0 0.004,0 0.006,0 l 9.80858,0 c 3.65588,0 6.60667,2.9247 6.60955,6.58928 0,3.66746 -2.95463,6.58638 -6.60955,6.58638 l -11.92386,0 0,15.04366 c 0,0.006 0,0.0135 0,0.0203 0,15.629 -12.67146,28.30047 -28.30144,28.30047 -2.37124,0 -4.05671,-0.26755 -6.25218,-0.84129 -3.19998,-0.83743 -5.815597,-3.46174 -5.816563,-6.51394 0,-3.68968 2.677433,-6.37292 6.681043,-6.37292 1.90569,0 2.59629,0.36608 5.3877,0.36608 8.23998,0 14.92391,-6.67428 14.9384,-14.91425 0,0 0,-12.97958 0,-12.97958 0,-1.16293 -0.9456,-2.10563 -2.11046,-2.10563 -0.002,0 -0.003,0 -0.006,0 l -9.80761,-0.002 c -3.65587,0 -6.61052,-2.91697 -6.61052,-6.58251 -0.002,-3.68871 2.98459,-6.59313 6.68007,-6.59313 l 11.85336,0 0,0 z" />
      <path
         d="m 193.56659,336.11109 0,6.39186 c 0,0.42825 -0.25906,0.68731 -0.77718,0.77718 l -0.0555,0 c -0.43881,0 -0.70844,-0.27229 -0.80888,-0.81681 l 0,-10.13501 c 0.0635,-0.58683 0.31192,-0.88027 0.74544,-0.88027 l 0.11898,0 c 0.43883,0 0.73224,0.31193 0.88028,0.93578 l 3.64004,8.13656 c 0.0476,-0.18491 0.84589,-2.04339 2.39497,-5.57505 l 1.49091,-3.21178 c 0.17975,-0.19027 0.37536,-0.28541 0.58685,-0.28541 l 0.11898,0 c 0.4335,0 0.682,0.29346 0.74545,0.88026 l 0,10.13501 c -0.10044,0.54455 -0.3701,0.81681 -0.8089,0.81681 l -0.0555,0 c -0.51814,-0.0898 -0.77719,-0.34893 -0.77719,-0.77718 l 0,-6.39978 c -1.96674,4.45156 -2.99503,6.74875 -3.08491,6.89149 -0.21675,0.19027 -0.42824,0.2854 -0.63443,0.2854 -0.46525,0 -0.84855,-0.47051 -1.14991,-1.41157 l -2.56943,-5.75745 m -10.79318,-4.69478 7.42282,0 c 0.50225,0.0951 0.75337,0.35424 0.75337,0.77716 l 0,0.11898 c 0,0.43354 -0.29343,0.682 -0.88026,0.74543 l -2.75977,0 0,9.44507 c 0,0.42823 -0.26436,0.68731 -0.79304,0.77718 l -0.0396,0 c -0.43884,0 -0.70846,-0.2723 -0.8089,-0.81681 l 0,-9.40544 -2.82321,0 c -0.54456,-0.10552 -0.81684,-0.39122 -0.81684,-0.85646 0.11631,-0.5234 0.3648,-0.78511 0.74547,-0.78511"
         id="path4724"
         style="font-style:normal;font-variant:normal;font-weight:bold;font-stretch:expanded;font-size:11.72808552px;line-height:89.99999762%;font-family:Comfortaa;-inkscape-font-specification:'Comfortaa Bold Expanded';text-align:start;writing-mode:lr-tb;text-anchor:start;fill:#3c6eb4;fill-opacity:1;stroke:none"
         inkscape:connector-curvature="0" />
    </g>
    <g
       transform="matrix(0.97812834,0,0,0.97812834,-687.83462,2.4890851)"
       id="text5137"
       style="font-style:normal;font-weight:normal;font-size:124.43029785px;line-height:125%;font-family:sans-serif;letter-spacing:0px;word-spacing:0px;fill:#8c8c8c;fill-opacity:1;stroke:none;stroke-width:1px;stroke-linecap:butt;stroke-linejoin:miter;stroke-opacity:1">
      <path
         inkscape:connector-curvature="0"
         id="path5144"
         style="font-style:normal;font-variant:normal;font-weight:normal;font-stretch:normal;font-family:Comfortaa;-inkscape-font-specification:Comfortaa;fill:#8c8c8c;fill-opacity:1"
         d="m 1000.6152,139.66557 q -2.00502,0 -3.46319,-1.39741 -1.39741,-1.45817 -1.39741,-3.46315 0,-2.00498 1.39741,-3.40239 1.45817,-1.45817 3.46319,-1.45817 l 63.1872,0 q 2.005,0 3.4024,1.45817 1.4582,1.39741 1.4582,3.40239 0,2.00498 -1.4582,3.46315 -1.3974,1.39741 -3.4024,1.39741 l -26.7331,0 0,82.6295 q 0,2.00498 -1.4581,3.46314 -1.3974,1.39741 -3.4024,1.39741 -2.005,0 -3.4632,-1.39741 -1.3974,-1.45816 -1.3974,-3.46314 l 0,-82.6295 -26.733,0 z" />
      <path
         inkscape:connector-curvature="0"
         id="path5146"
         style="font-style:normal;font-variant:normal;font-weight:normal;font-stretch:normal;font-family:Comfortaa;-inkscape-font-specification:Comfortaa;fill:#8c8c8c;fill-opacity:1"
         d="m 1080.146,193.13171 -12.0906,31.04682 q -0.3645,0.8506 -1.0329,1.57968 -1.4581,1.39741 -3.4631,1.39741 -2.005,0 -3.4632,-1.39741 -1.3974,-1.45816 -1.3974,-3.46314 0,-1.15439 0.4253,-2.06574 l 33.7809,-86.88248 q 0.3646,-1.09363 1.2759,-2.00499 1.3974,-1.39741 3.4024,-1.39741 2.005,0 3.4632,1.39741 0.8505,0.91136 1.2151,2.00499 l 33.7809,86.88248 q 0.4253,0.91135 0.4253,2.06574 0,2.00498 -1.4582,3.46314 -1.3974,1.39741 -3.4024,1.39741 -2.005,0 -3.4024,-1.39741 -0.7291,-0.72908 -1.0936,-1.57968 l -12.0906,-31.04682 -34.8746,0 z m 31.1076,-9.72111 -13.6703,-35.17829 -13.6703,35.17829 27.3406,0 z" />
      <path
         inkscape:connector-curvature="0"
         id="path5148"
         style="font-style:normal;font-variant:normal;font-weight:normal;font-stretch:normal;font-family:Comfortaa;-inkscape-font-specification:Comfortaa;fill:#8c8c8c;fill-opacity:1"
         d="m 1151.0494,134.80501 q 0,-2.00498 1.3975,-3.40239 1.4581,-1.45817 3.4631,-1.45817 2.005,0 3.4024,1.45817 1.4582,1.39741 1.4582,3.40239 l 0,87.49006 q 0,2.00498 -1.4582,3.46314 -1.3974,1.39741 -3.4024,1.39741 -2.005,0 -3.4631,-1.39741 -1.3975,-1.45816 -1.3975,-3.46314 l 0,-87.49006 z" />
      <path
         inkscape:connector-curvature="0"
         id="path5150"
         style="font-style:normal;font-variant:normal;font-weight:normal;font-stretch:normal;font-family:Comfortaa;-inkscape-font-specification:Comfortaa;fill:#8c8c8c;fill-opacity:1"
         d="m 1225.416,131.34186 q 1.3974,-1.39741 3.4024,-1.39741 2.005,0 3.4631,1.39741 0.7899,0.8506 1.1544,1.82271 l 19.6853,70.96416 19.6852,-70.96416 q 0.3646,-0.97211 1.2152,-1.82271 1.3974,-1.39741 3.4024,-1.39741 2.005,0 3.4024,1.45817 1.4581,1.39741 1.4581,3.40239 0,1.03287 -0.3645,2.1265 l -23.8167,86.1534 q -0.4861,1.51892 -1.519,2.61255 -1.4581,1.45816 -3.4631,1.45816 -2.005,0 -3.4024,-1.45816 -1.0936,-1.09363 -1.5189,-2.5518 l -19.3815,-69.99204 -19.3207,69.93129 q -0.4861,1.51892 -1.519,2.61255 -1.4581,1.45816 -3.4631,1.45816 -2.005,0 -3.4024,-1.45816 -1.0936,-1.09363 -1.5189,-2.5518 l -23.8775,-86.21415 q -0.3646,-1.09363 -0.3646,-2.1265 0,-2.00498 1.3975,-3.40239 1.4581,-1.45817 3.4631,-1.45817 2.005,0 3.4631,1.39741 0.7899,0.8506 1.1544,1.82271 l 19.6853,70.96416 19.6853,-70.96416 q 0.243,-0.91135 1.2151,-1.82271 z" />
      <path
         inkscape:connector-curvature="0"
         id="path5152"
         style="font-style:normal;font-variant:normal;font-weight:normal;font-stretch:normal;font-family:Comfortaa;-inkscape-font-specification:Comfortaa;fill:#8c8c8c;fill-opacity:1"
         d="m 1304.2178,193.13171 -12.0906,31.04682 q -0.3646,0.8506 -1.0329,1.57968 -1.4582,1.39741 -3.4631,1.39741 -2.005,0 -3.4632,-1.39741 -1.3974,-1.45816 -1.3974,-3.46314 0,-1.15439 0.4253,-2.06574 l 33.7809,-86.88248 q 0.3645,-1.09363 1.2759,-2.00499 1.3974,-1.39741 3.4024,-1.39741 2.0049,0 3.4631,1.39741 0.8506,0.91136 1.2151,2.00499 l 33.7809,86.88248 q 0.4253,0.91135 0.4253,2.06574 0,2.00498 -1.4581,3.46314 -1.3974,1.39741 -3.4024,1.39741 -2.005,0 -3.4024,-1.39741 -0.7291,-0.72908 -1.0936,-1.57968 l -12.0907,-31.04682 -34.8745,0 z m 31.1076,-9.72111 -13.6703,-35.17829 -13.6704,35.17829 27.3407,0 z" />
      <path
         inkscape:connector-curvature="0"
         id="path5154"
         style="font-style:normal;font-variant:normal;font-weight:normal;font-stretch:normal;font-family:Comfortaa;-inkscape-font-specification:Comfortaa;fill:#8c8c8c;fill-opacity:1"
         d="m 1379.9818,222.29507 q 0,2.00498 -1.4582,3.46314 -1.3974,1.39741 -3.4024,1.39741 -2.005,0 -3.4631,-1.39741 -1.3975,-1.45816 -1.3975,-3.46314 l 0,-87.49006 q 0,-2.00498 1.3975,-3.40239 1.4581,-1.45817 3.4631,-1.45817 2.1873,0 3.7669,1.76196 l 59.4204,76.43228 0,-73.33368 q 0,-2.00498 1.3974,-3.40239 1.4581,-1.45817 3.4631,-1.45817 2.005,0 3.4024,1.45817 1.4582,1.39741 1.4582,3.40239 l 0,87.49006 q 0,2.00498 -1.4582,3.46314 -1.3974,1.39741 -3.4024,1.39741 -2.1265,0 -3.6454,-1.57968 l -59.5418,-76.55379 0,73.27292 z" />
    </g>
  </g>
</svg>
